<?xml version="1.0" encoding="UTF-8"?>
<!DOCTYPE svg PUBLIC "-//W3C//DTD SVG 1.1//EN" "http://www.w3.org/Graphics/SVG/1.1/DTD/svg11.dtd">
<!-- Creator: CorelDRAW 2019 (64-Bit) -->
<svg xmlns="http://www.w3.org/2000/svg" xml:space="preserve" width="28.2442mm" height="28.2442mm" version="1.1" style="shape-rendering:geometricPrecision; text-rendering:geometricPrecision; image-rendering:optimizeQuality; fill-rule:evenodd; clip-rule:evenodd"
viewBox="0 0 8.05 8.05"
 xmlns:xlink="http://www.w3.org/1999/xlink"
 xmlns:xodm="http://www.corel.com/coreldraw/odm/2003">
 <defs>
  <style type="text/css">
   <![CDATA[
    .str0 {stroke:#FEFEFE;stroke-width:0.02;stroke-miterlimit:22.9256}
    .fil2 {fill:#FEFEFE}
    .fil1 {fill:#F96765}
    .fil0 {fill:#F96765;fill-opacity:0.301961}
   ]]>
  </style>
 </defs>
 <g id="Layer_x0020_1">
  <metadata id="CorelCorpID_0Corel-Layer"/>
  <path class="fil0" d="M4.03 0c2.22,0 4.03,1.8 4.03,4.03 0,2.22 -1.8,4.03 -4.03,4.03 -2.22,0 -4.03,-1.8 -4.03,-4.03 0,-2.22 1.8,-4.03 4.03,-4.03z"/>
 </g>
 <g id="_2D_x0020_Drafting_x0020_-_x0020_General">
  <metadata id="CorelCorpID_1Corel-Layer"/>
  <g id="_1984682913856">
   <path class="fil1" d="M4.03 0.9c1.77,0 3.2,1.4 3.2,3.13 0,1.73 -1.43,3.13 -3.2,3.13 -1.77,0 -3.2,-1.4 -3.2,-3.13 0,-1.73 1.43,-3.13 3.2,-3.13z"/>
   <path class="fil2 str0" d="M4.05 2.71c0.35,0 0.63,0.28 0.63,0.63 0,0.15 -0.05,0.28 -0.14,0.39l-0.52 0.65 -0.47 -0.66c-0.08,-0.11 -0.13,-0.24 -0.13,-0.38 0,-0.35 0.28,-0.63 0.63,-0.63zm0 0.38c0.13,0 0.24,0.11 0.24,0.24 0,0.13 -0.11,0.24 -0.24,0.24 -0.13,0 -0.24,-0.11 -0.24,-0.24 0,-0.13 0.11,-0.24 0.24,-0.24zm1.47 0.45l-0.81 0.37 0.01 1.42 0.79 -0.33 0.01 -1.45zm-1.5 1.12l-0.47 -0.54 0 0.89 0.92 0.33 0.01 -1.12 -0.47 0.44zm-0.72 -1.04l-0.75 0.29 0.02 1.43 0.73 -0.33 0 -1.4z"/>
  </g>
 </g>
</svg>
