<?xml version="1.0" encoding="UTF-8"?>
<!DOCTYPE svg PUBLIC "-//W3C//DTD SVG 1.1//EN" "http://www.w3.org/Graphics/SVG/1.1/DTD/svg11.dtd">
<!-- Creator: CorelDRAW 2019 (64-Bit) -->
<svg xmlns="http://www.w3.org/2000/svg" xml:space="preserve" width="16.2279mm" height="16.2279mm" version="1.1" style="shape-rendering:geometricPrecision; text-rendering:geometricPrecision; image-rendering:optimizeQuality; fill-rule:evenodd; clip-rule:evenodd"
viewBox="0 0 2.55 2.55"
 xmlns:xlink="http://www.w3.org/1999/xlink"
 xmlns:xodm="http://www.corel.com/coreldraw/odm/2003">
 <defs>
  <style type="text/css">
   <![CDATA[
    .str0 {stroke:#E6E7E8;stroke-width:0.06;stroke-miterlimit:22.9256}
    .fil0 {fill:none}
    .fil1 {fill:#333333;fill-rule:nonzero}
   ]]>
  </style>
 </defs>
 <g id="_2D_x0020_Drafting_x0020_-_x0020_General">
  <metadata id="CorelCorpID_0Corel-Layer"/>
  <circle class="fil0 str0" cx="1.27" cy="1.27" r="1.25"/>
 </g>
 <g id="_2D_x0020_Drafting_x0020_-_x0020_General_0">
  <metadata id="CorelCorpID_1Corel-Layer"/>
  <path class="fil1" d="M1.27 0.85c-0.23,0 -0.42,0.19 -0.42,0.42 0,0.23 0.19,0.42 0.42,0.42 0.23,0 0.42,-0.19 0.42,-0.42 0,-0.23 -0.19,-0.42 -0.42,-0.42zm0.28 0.2c0.05,0.06 0.08,0.14 0.08,0.23 -0.01,-0 -0.13,-0.03 -0.25,-0.01 -0,-0.01 -0.01,-0.01 -0.01,-0.02 -0.01,-0.02 -0.02,-0.04 -0.02,-0.05 0.13,-0.05 0.19,-0.13 0.2,-0.14zm-0.28 -0.13c0.09,0 0.18,0.03 0.24,0.09 -0.01,0.01 -0.06,0.08 -0.19,0.13 -0.06,-0.11 -0.13,-0.2 -0.14,-0.21 0.03,-0.01 0.06,-0.01 0.09,-0.01zm-0.15 0.03c0.01,0.01 0.07,0.1 0.13,0.21 -0.17,0.05 -0.32,0.04 -0.33,0.04 0.02,-0.11 0.1,-0.21 0.2,-0.25zm-0.21 0.33c0,-0 0,-0.01 0,-0.01 0.02,0 0.19,0 0.37,-0.05 0.01,0.02 0.02,0.04 0.03,0.06 -0,0 -0.01,0 -0.01,0 -0.19,0.06 -0.29,0.23 -0.29,0.24 -0.06,-0.06 -0.09,-0.15 -0.09,-0.24zm0.36 0.36c-0.08,0 -0.16,-0.03 -0.22,-0.08 0.01,-0.01 0.08,-0.16 0.28,-0.23 0,-0 0,-0 0,-0 0.05,0.13 0.07,0.24 0.08,0.27 -0.04,0.02 -0.09,0.03 -0.14,0.03zm0.2 -0.06c-0,-0.02 -0.02,-0.13 -0.07,-0.26 0.11,-0.02 0.21,0.01 0.23,0.02 -0.02,0.1 -0.07,0.19 -0.16,0.24z"/>
 </g>
</svg>
