<?xml version="1.0" encoding="UTF-8"?>
<!DOCTYPE svg PUBLIC "-//W3C//DTD SVG 1.1//EN" "http://www.w3.org/Graphics/SVG/1.1/DTD/svg11.dtd">
<!-- Creator: CorelDRAW 2019 (64-Bit) -->
<svg xmlns="http://www.w3.org/2000/svg" xml:space="preserve" width="16.2279mm" height="16.2279mm" version="1.1" style="shape-rendering:geometricPrecision; text-rendering:geometricPrecision; image-rendering:optimizeQuality; fill-rule:evenodd; clip-rule:evenodd"
viewBox="0 0 2.57 2.57"
 xmlns:xlink="http://www.w3.org/1999/xlink"
 xmlns:xodm="http://www.corel.com/coreldraw/odm/2003">
 <defs>
  <style type="text/css">
   <![CDATA[
    .str0 {stroke:#E6E7E8;stroke-width:0.06;stroke-miterlimit:22.9256}
    .fil0 {fill:none}
    .fil1 {fill:#333333;fill-rule:nonzero}
   ]]>
  </style>
 </defs>
 <g id="_2D_x0020_Drafting_x0020_-_x0020_General">
  <metadata id="CorelCorpID_0Corel-Layer"/>
  <circle class="fil0 str0" cx="1.29" cy="1.29" r="1.26"/>
  <path class="fil1" d="M1.4 1.01c0.02,0 0.06,-0 0.09,0l0.02 -0.13c-0.05,-0.02 -0.1,-0.02 -0.15,-0.02 -0.05,0 -0.09,0.01 -0.12,0.03 -0.03,0.02 -0.05,0.04 -0.07,0.07 -0.01,0.03 -0.02,0.12 -0.02,0.17l0 0.05 -0.1 0 0 0.14 0.1 0 0 0.39 0.18 0 0 -0.39 0.13 0 0 -0.14 -0.13 0 0 -0.05c0,-0.06 -0.01,-0.12 0.06,-0.12z"/>
 </g>
</svg>
