<?xml version="1.0" encoding="UTF-8"?>
<!DOCTYPE svg PUBLIC "-//W3C//DTD SVG 1.1//EN" "http://www.w3.org/Graphics/SVG/1.1/DTD/svg11.dtd">
<!-- Creator: CorelDRAW 2019 (64-Bit) -->
<svg xmlns="http://www.w3.org/2000/svg" xml:space="preserve" width="16.2279mm" height="16.2279mm" version="1.1" style="shape-rendering:geometricPrecision; text-rendering:geometricPrecision; image-rendering:optimizeQuality; fill-rule:evenodd; clip-rule:evenodd"
viewBox="0 0 2.56 2.56"
 xmlns:xlink="http://www.w3.org/1999/xlink"
 xmlns:xodm="http://www.corel.com/coreldraw/odm/2003">
 <defs>
  <style type="text/css">
   <![CDATA[
    .str0 {stroke:#E6E7E8;stroke-width:0.06;stroke-miterlimit:22.9256}
    .fil0 {fill:none}
    .fil1 {fill:#333333;fill-rule:nonzero}
   ]]>
  </style>
 </defs>
 <g id="_2D_x0020_Drafting_x0020_-_x0020_General">
  <metadata id="CorelCorpID_0Corel-Layer"/>
  <circle class="fil0 str0" cx="1.28" cy="1.28" r="1.25"/>
  <g id="linkedin-10.eps">
   <path class="fil1" d="M0.98 0.89c0.05,0 0.1,0.04 0.1,0.1 0,0.05 -0.05,0.1 -0.1,0.1 -0.05,0 -0.1,-0.04 -0.1,-0.1 -0,-0.05 0.04,-0.1 0.1,-0.1z"/>
   <path class="fil1" d="M1.04 1.67l-0.11 0c-0.01,0 -0.03,-0.01 -0.03,-0.03l0 -0.48c0,-0.01 0.01,-0.03 0.03,-0.03l0.11 0c0.01,0 0.03,0.01 0.03,0.03l0 0.48c0,0.01 -0.01,0.03 -0.03,0.03z"/>
   <path class="fil1" d="M1.67 1.3c0,-0.1 -0.07,-0.18 -0.18,-0.18l-0.03 0c-0.05,0 -0.11,0.03 -0.14,0.07 -0.01,0.01 -0.01,0.01 -0.01,0.01l0 -0.05c0,-0.01 -0.01,-0.01 -0.01,-0.01l-0.14 0c-0.01,0 -0.01,0.01 -0.01,0.01l0 0.51c0,0.01 0.01,0.01 0.01,0.01l0.15 0c0.01,0 0.01,-0.01 0.01,-0.01l0 -0.29c0,-0.05 0.04,-0.09 0.09,-0.09 0.03,0 0.05,0.01 0.07,0.03 0.02,0.02 0.02,0.04 0.02,0.07l0 0.29c0,0.01 0.01,0.01 0.01,0.01l0.14 0c0.01,0 0.01,-0.01 0.01,-0.01l0 -0.35 -0 0z"/>
  </g>
 </g>
</svg>
