<?xml version="1.0" encoding="UTF-8"?>
<!DOCTYPE svg PUBLIC "-//W3C//DTD SVG 1.1//EN" "http://www.w3.org/Graphics/SVG/1.1/DTD/svg11.dtd">
<!-- Creator: CorelDRAW 2019 (64-Bit) -->
<svg xmlns="http://www.w3.org/2000/svg" xml:space="preserve" width="28.2442mm" height="28.2442mm" version="1.1" style="shape-rendering:geometricPrecision; text-rendering:geometricPrecision; image-rendering:optimizeQuality; fill-rule:evenodd; clip-rule:evenodd"
viewBox="0 0 7.94 7.94"
 xmlns:xlink="http://www.w3.org/1999/xlink"
 xmlns:xodm="http://www.corel.com/coreldraw/odm/2003">
 <defs>
  <style type="text/css">
   <![CDATA[
    .str0 {stroke:#FED1D1;stroke-width:0.02;stroke-miterlimit:22.9256}
    .fil2 {fill:#FEFEFE}
    .fil0 {fill:#F96765;fill-opacity:0.301961}
    .fil1 {fill:#F96765}
   ]]>
  </style>
 </defs>
 <g id="Layer_x0020_1">
  <metadata id="CorelCorpID_0Corel-Layer"/>
  <path class="fil0" d="M3.97 0c2.19,0 3.97,1.78 3.97,3.97 0,2.19 -1.78,3.97 -3.97,3.97 -2.19,0 -3.97,-1.78 -3.97,-3.97 0,-2.19 1.78,-3.97 3.97,-3.97z"/>
 </g>
 <g id="_2D_x0020_Drafting_x0020_-_x0020_General">
  <metadata id="CorelCorpID_1Corel-Layer"/>
  <path class="fil1 str0" d="M3.97 0.89c1.74,0 3.15,1.38 3.15,3.08 0,1.7 -1.41,3.08 -3.15,3.08 -1.74,0 -3.15,-1.38 -3.15,-3.08 0,-1.7 1.41,-3.08 3.15,-3.08z"/>
  <path class="fil2" d="M2.82 3.01l2.31 0c0.1,0 0.17,0.08 0.17,0.17l0 0.16 -1.11 0.83c-0.14,0.09 -0.28,0.1 -0.43,0l-1.11 -0.83 0 -0.16c0,-0.1 0.08,-0.17 0.17,-0.17zm2.48 0.56l0 1.19c0,0.1 -0.08,0.17 -0.17,0.17l-2.31 0c-0.1,0 -0.17,-0.08 -0.17,-0.17l0 -1.19 1.12 0.83c0.13,0.09 0.28,0.09 0.43,-0l1.11 -0.83z"/>
 </g>
</svg>
