<?xml version="1.0" encoding="UTF-8"?>
<!DOCTYPE svg PUBLIC "-//W3C//DTD SVG 1.1//EN" "http://www.w3.org/Graphics/SVG/1.1/DTD/svg11.dtd">
<!-- Creator: CorelDRAW 2019 (64-Bit) -->
<svg xmlns="http://www.w3.org/2000/svg" xml:space="preserve" width="16.2279mm" height="16.2279mm" version="1.1" style="shape-rendering:geometricPrecision; text-rendering:geometricPrecision; image-rendering:optimizeQuality; fill-rule:evenodd; clip-rule:evenodd"
viewBox="0 0 2.56 2.56"
 xmlns:xlink="http://www.w3.org/1999/xlink"
 xmlns:xodm="http://www.corel.com/coreldraw/odm/2003">
 <defs>
  <style type="text/css">
   <![CDATA[
    .str0 {stroke:#E6E7E8;stroke-width:0.06;stroke-miterlimit:22.9256}
    .fil0 {fill:none}
    .fil1 {fill:#333333;fill-rule:nonzero}
   ]]>
  </style>
 </defs>
 <g id="_2D_x0020_Drafting_x0020_-_x0020_General">
  <metadata id="CorelCorpID_0Corel-Layer"/>
  <circle class="fil0 str0" cx="1.28" cy="1.28" r="1.25"/>
 </g>
 <g id="_2D_x0020_Drafting_x0020_-_x0020_General_0">
  <metadata id="CorelCorpID_1Corel-Layer"/>
  <path class="fil1" d="M1.41 1.39l-0.31 -0.07 0.01 -0.06 0.31 0.07 -0.01 0.06zm0.02 -0.07l-0.28 -0.14 0.03 -0.06 0.28 0.14 -0.03 0.06zm0.04 -0.08l-0.24 -0.21 0.04 -0.05 0.24 0.21 -0.04 0.05zm0.07 -0.07l-0.18 -0.26 0.05 -0.04 0.18 0.26 -0.05 0.04zm-0.13 0.29l-0.32 -0.02 0 -0.06 0.32 0.02 -0 0.06zm0.07 0.15l0 -0.26 0.06 0 0 0.33 -0.57 0 0 -0.33 0.06 0 0 0.26 0.45 0zm-0.38 -0.13l0.32 0 0 0.06 -0.32 0 0 -0.06z"/>
 </g>
</svg>
