<?xml version="1.0" encoding="UTF-8"?>
<!DOCTYPE svg PUBLIC "-//W3C//DTD SVG 1.1//EN" "http://www.w3.org/Graphics/SVG/1.1/DTD/svg11.dtd">
<!-- Creator: CorelDRAW 2019 (64-Bit) -->
<svg xmlns="http://www.w3.org/2000/svg" xml:space="preserve" width="28.2442mm" height="28.2442mm" version="1.1" style="shape-rendering:geometricPrecision; text-rendering:geometricPrecision; image-rendering:optimizeQuality; fill-rule:evenodd; clip-rule:evenodd"
viewBox="0 0 7.99 7.99"
 xmlns:xlink="http://www.w3.org/1999/xlink"
 xmlns:xodm="http://www.corel.com/coreldraw/odm/2003">
 <defs>
  <style type="text/css">
   <![CDATA[
    .str0 {stroke:#FED1D1;stroke-width:0.02;stroke-miterlimit:22.9256}
    .fil2 {fill:#FEFEFE}
    .fil0 {fill:#F96765;fill-opacity:0.301961}
    .fil1 {fill:#F96765}
   ]]>
  </style>
 </defs>
 <g id="Layer_x0020_1">
  <metadata id="CorelCorpID_0Corel-Layer"/>
  <path class="fil0" d="M4 0c2.21,0 4,1.79 4,4 0,2.21 -1.79,4 -4,4 -2.21,0 -4,-1.79 -4,-4 0,-2.21 1.79,-4 4,-4z"/>
 </g>
 <g id="_2D_x0020_Drafting_x0020_-_x0020_General">
  <metadata id="CorelCorpID_1Corel-Layer"/>
  <path class="fil1 str0" d="M4 0.89c1.75,0 3.17,1.39 3.17,3.1 0,1.71 -1.42,3.1 -3.17,3.1 -1.75,0 -3.17,-1.39 -3.17,-3.1 0,-1.71 1.42,-3.1 3.17,-3.1z"/>
  <path class="fil2" d="M3.41 2.67l1.17 0c0.14,0 0.25,0.11 0.25,0.25l0 2.15c0,0.14 -0.11,0.25 -0.25,0.25l-1.17 0c-0.14,0 -0.25,-0.11 -0.25,-0.25l0 -2.15c0,-0.14 0.11,-0.25 0.25,-0.25zm0.59 2.23c0.08,0 0.14,0.06 0.14,0.14 0,0.08 -0.06,0.14 -0.14,0.14 -0.08,0 -0.14,-0.06 -0.14,-0.14 0,-0.08 0.06,-0.14 0.14,-0.14zm-0.53 -1.99l1.05 0c0.04,0 0.07,0.03 0.07,0.07l0 1.64c0,0.04 -0.03,0.07 -0.07,0.07l-1.05 0c-0.04,0 -0.07,-0.03 -0.07,-0.07l0 -1.64c0,-0.04 0.03,-0.07 0.07,-0.07z"/>
 </g>
</svg>
